<svg width="168" height="29" viewBox="0 0 168 29" fill="none" xmlns="http://www.w3.org/2000/svg">
<path d="M16.852 0.599998H24.404V23H16.852V0.599998ZM9.876 23H2.324V0.599998H9.876V23ZM17.364 14.744H9.364V8.536H17.364V14.744ZM38.7628 23.512C35.3281 23.512 32.6508 22.584 30.7308 20.728C28.8108 18.872 27.8508 16.2693 27.8508 12.92V0.599998H35.4028V12.696C35.4028 14.4027 35.7121 15.6187 36.3308 16.344C36.9494 17.048 37.7814 17.4 38.8268 17.4C39.8934 17.4 40.7254 17.048 41.3228 16.344C41.9414 15.6187 42.2508 14.4027 42.2508 12.696V0.599998H49.6748V12.92C49.6748 16.2693 48.7148 18.872 46.7948 20.728C44.8748 22.584 42.1974 23.512 38.7628 23.512ZM53.1365 23V0.599998H65.1045C68.1978 0.599998 70.4805 1.15467 71.9525 2.264C73.4245 3.352 74.1605 4.74933 74.1605 6.456C74.1605 7.58667 73.8405 8.6 73.2005 9.496C72.5818 10.3707 71.6752 11.064 70.4805 11.576C69.2858 12.088 67.8138 12.344 66.0645 12.344L66.7045 10.616C68.4538 10.616 69.9578 10.8613 71.2165 11.352C72.4965 11.8427 73.4778 12.5573 74.1605 13.496C74.8645 14.4133 75.2165 15.5227 75.2165 16.824C75.2165 18.7653 74.4058 20.28 72.7845 21.368C71.1845 22.456 68.8378 23 65.7445 23H53.1365ZM60.5605 17.72H65.1045C65.9365 17.72 66.5552 17.5707 66.9605 17.272C67.3872 16.9733 67.6005 16.536 67.6005 15.96C67.6005 15.384 67.3872 14.9467 66.9605 14.648C66.5552 14.3493 65.9365 14.2 65.1045 14.2H60.0485V9.208H64.0805C64.9338 9.208 65.5525 9.06933 65.9365 8.792C66.3418 8.49333 66.5445 8.07733 66.5445 7.544C66.5445 6.98933 66.3418 6.57333 65.9365 6.296C65.5525 6.01867 64.9338 5.88 64.0805 5.88H60.5605V17.72ZM79.4225 23V0.599998H88.8625C91.2518 0.599998 93.3532 1.06933 95.1665 2.008C97.0012 2.94667 98.4198 4.25867 99.4225 5.944C100.447 7.62933 100.959 9.58133 100.959 11.8C100.959 14.0187 100.447 15.9707 99.4225 17.656C98.4198 19.3413 97.0012 20.6533 95.1665 21.592C93.3532 22.5307 91.2518 23 88.8625 23H79.4225ZM82.6225 20.216H88.6705C90.5265 20.216 92.1265 19.864 93.4705 19.16C94.8358 18.456 95.8918 17.4747 96.6385 16.216C97.3852 14.936 97.7585 13.464 97.7585 11.8C97.7585 10.1147 97.3852 8.64267 96.6385 7.384C95.8918 6.12533 94.8358 5.144 93.4705 4.44C92.1265 3.736 90.5265 3.384 88.6705 3.384H82.6225V20.216ZM108.772 10.264H120.292V12.984H108.772V10.264ZM109.06 20.216H122.116V23H105.86V0.599998H121.668V3.384H109.06V20.216ZM133.826 23.256C132.119 23.256 130.487 23 128.93 22.488C127.372 21.9547 126.146 21.272 125.25 20.44L126.434 17.944C127.287 18.6907 128.375 19.3093 129.698 19.8C131.02 20.2907 132.396 20.536 133.826 20.536C135.127 20.536 136.183 20.3867 136.994 20.088C137.804 19.7893 138.402 19.384 138.786 18.872C139.17 18.3387 139.362 17.7413 139.362 17.08C139.362 16.312 139.106 15.6933 138.594 15.224C138.103 14.7547 137.452 14.3813 136.642 14.104C135.852 13.8053 134.978 13.5493 134.018 13.336C133.058 13.1227 132.087 12.8773 131.106 12.6C130.146 12.3013 129.26 11.928 128.45 11.48C127.66 11.032 127.02 10.4347 126.53 9.688C126.039 8.92 125.794 7.93867 125.794 6.744C125.794 5.592 126.092 4.536 126.69 3.576C127.308 2.59466 128.247 1.816 129.506 1.24C130.786 0.642666 132.407 0.344 134.37 0.344C135.671 0.344 136.962 0.514666 138.242 0.855999C139.522 1.19733 140.631 1.688 141.569 2.328L140.514 4.888C139.554 4.248 138.54 3.78933 137.474 3.512C136.407 3.21333 135.372 3.064 134.37 3.064C133.111 3.064 132.076 3.224 131.266 3.544C130.455 3.864 129.858 4.29067 129.474 4.824C129.111 5.35733 128.93 5.95467 128.93 6.616C128.93 7.40533 129.175 8.03467 129.666 8.504C130.178 8.97333 130.828 9.34667 131.618 9.624C132.428 9.90133 133.314 10.1573 134.274 10.392C135.234 10.6053 136.194 10.8507 137.154 11.128C138.135 11.4053 139.02 11.768 139.81 12.216C140.62 12.664 141.271 13.2613 141.762 14.008C142.252 14.7547 142.498 15.7147 142.498 16.888C142.498 18.0187 142.188 19.0747 141.569 20.056C140.951 21.016 139.991 21.7947 138.69 22.392C137.41 22.968 135.788 23.256 133.826 23.256ZM149.989 17.592L149.829 13.688L162.533 0.599998H166.181L156.357 10.968L154.565 12.952L149.989 17.592ZM147.173 23V0.599998H150.373V23H147.173ZM163.045 23L153.861 12.312L156.005 9.944L166.789 23H163.045Z" fill="url(#paint0_linear_654_4)"/>
<line x1="0.5" y1="28.5" x2="167.5" y2="28.5" stroke="url(#paint1_linear_654_4)"/>
<defs>
<linearGradient id="paint0_linear_654_4" x1="-0.0921987" y1="0.999998" x2="145.522" y2="66.4945" gradientUnits="userSpaceOnUse">
<stop stop-color="#0369A1"/>
<stop offset="1" stop-color="#024B72"/>
</linearGradient>
<linearGradient id="paint1_linear_654_4" x1="0.499996" y1="27.9998" x2="166.904" y2="29.4022" gradientUnits="userSpaceOnUse">
<stop stop-color="#0369A1"/>
<stop offset="1" stop-color="#024B72"/>
</linearGradient>
</defs>
</svg>
