<svg xmlns="http://www.w3.org/2000/svg" width="361" height="73" fill="none"><path fill="#fff" d="M115.872 17.9459h8.7v38.325h-8.7v-38.325Zm-17.077 38.325h-8.6998v-38.325h8.6998v38.325Zm17.722-15.7133H98.1505v-7.5007h18.3665v7.5007Zm28.549 16.1513c-2.399 0-4.547-.4745-6.444-1.4235-1.862-.949-3.312-2.3908-4.35-4.3253-1.039-1.971-1.558-4.4712-1.558-7.5007v-16.644h8.378v15.3847c0 2.4455.501 4.2523 1.504 5.4203 1.038 1.1315 2.488 1.6972 4.349 1.6972 1.289 0 2.434-.2737 3.437-.8212 1.002-.584 1.79-1.46 2.363-2.628.573-1.2045.859-2.701.859-4.4895V26.8154h8.378v29.4555h-7.948v-8.103l1.45 2.3542c-.967 2.044-2.399 3.5953-4.297 4.6538-1.861 1.022-3.901 1.533-6.121 1.533Zm41.754 0c-2.541 0-4.725-.5475-6.551-1.6425-1.826-1.095-3.222-2.7558-4.189-4.9823-.967-2.263-1.45-5.11-1.45-8.541 0-3.4675.501-6.3145 1.504-8.541 1.038-2.2265 2.47-3.8872 4.296-4.9822 1.826-1.095 3.956-1.6425 6.39-1.6425 2.721 0 5.156.6205 7.304 1.8615 2.184 1.241 3.902 2.993 5.155 5.256 1.289 2.263 1.934 4.9457 1.934 8.0482 0 3.066-.645 5.7305-1.934 7.9935-1.253 2.263-2.971 4.0333-5.155 5.3108-2.148 1.241-4.583 1.8615-7.304 1.8615Zm-17.077-.438V15.6464h8.378v17.1367l-.537 8.7053.161 8.76v6.0225h-8.002Zm15.628-6.57c1.396 0 2.631-.3285 3.705-.9855 1.11-.657 1.987-1.5878 2.631-2.7923.681-1.241 1.021-2.701 1.021-4.38 0-1.7155-.34-3.1755-1.021-4.38-.644-1.2045-1.521-2.1352-2.631-2.7922-1.074-.657-2.309-.9855-3.705-.9855-1.397 0-2.65.3285-3.76.9855-1.11.657-1.987 1.5877-2.631 2.7922-.645 1.2045-.967 2.6645-.967 4.38 0 1.679.322 3.139.967 4.38.644 1.2045 1.521 2.1353 2.631 2.7923 1.11.657 2.363.9855 3.76.9855Zm37.25 6.57v-38.325h17.077c4.081 0 7.679.803 10.794 2.409 3.115 1.5695 5.549 3.7777 7.304 6.6247 1.754 2.847 2.631 6.2233 2.631 10.1288 0 3.869-.877 7.2452-2.631 10.1287-1.755 2.847-4.189 5.0735-7.304 6.6795-3.115 1.5695-6.713 2.3543-10.794 2.3543h-17.077Zm8.699-7.2818h7.948c2.507 0 4.673-.4745 6.498-1.4235 1.862-.9855 3.294-2.3725 4.297-4.161 1.038-1.7885 1.557-3.8872 1.557-6.2962 0-2.4455-.519-4.5443-1.557-6.2963-1.003-1.7885-2.435-3.1572-4.297-4.1062-1.825-.9855-3.991-1.4783-6.498-1.4783h-7.948v23.7615Zm49.416 7.7198c-3.294 0-6.194-.657-8.7-1.971-2.47-1.314-4.386-3.1025-5.746-5.3655-1.361-2.2995-2.041-4.9093-2.041-7.8293 0-2.9565.662-5.5662 1.987-7.8292 1.36-2.2995 3.204-4.088 5.531-5.3655 2.327-1.314 4.959-1.971 7.895-1.971 2.828 0 5.37.6205 7.625 1.8615 2.292 1.2045 4.1 2.9565 5.424 5.256 1.325 2.263 1.987 4.9822 1.987 8.1577 0 .3285-.018.7118-.053 1.1498-.036.4015-.072.7847-.108 1.1497h-23.468v-4.9822h19.065l-3.223 1.4782c0-1.533-.304-2.8652-.912-3.9967-.609-1.1315-1.45-2.0075-2.524-2.628-1.075-.657-2.328-.9855-3.76-.9855s-2.703.3285-3.813.9855c-1.074.6205-1.915 1.5147-2.524 2.6827-.608 1.1315-.913 2.482-.913 4.0515v1.314c0 1.606.341 3.0295 1.021 4.2705.716 1.2045 1.7 2.1353 2.953 2.7923 1.289.6205 2.793.9307 4.511.9307 1.54 0 2.883-.2372 4.028-.7117 1.182-.4745 2.256-1.1863 3.222-2.1353l4.458 4.9275c-1.325 1.533-2.99 2.7193-4.995 3.5588-2.005.803-4.314 1.2045-6.927 1.2045Zm29.26 0c-2.47 0-4.851-.292-7.142-.876-2.256-.6205-4.046-1.387-5.371-2.2995l2.793-6.132c1.325.8395 2.882 1.533 4.672 2.0805 1.826.511 3.616.7665 5.37.7665 1.934 0 3.294-.2373 4.082-.7118.823-.4745 1.235-1.1315 1.235-1.971 0-.6935-.322-1.2045-.967-1.533-.608-.365-1.432-.6387-2.47-.8212-1.038-.1825-2.184-.365-3.437-.5475-1.217-.1825-2.452-.4198-3.706-.7118-1.253-.3285-2.398-.803-3.437-1.4235-1.038-.6205-1.879-1.46-2.524-2.5185-.608-1.0585-.912-2.4272-.912-4.1062 0-1.8615.519-3.504 1.557-4.9275 1.074-1.4235 2.613-2.5368 4.618-3.3398 2.005-.8395 4.404-1.2592 7.196-1.2592 1.97 0 3.974.219 6.015.657 2.041.438 3.741 1.0767 5.102 1.9162l-2.793 6.0773c-1.396-.8395-2.81-1.4053-4.242-1.6973-1.396-.3285-2.757-.4927-4.082-.4927-1.861 0-3.222.2555-4.081.7665-.859.511-1.289 1.168-1.289 1.971 0 .73.305 1.2775.913 1.6425.645.365 1.486.657 2.524.876 1.038.219 2.166.4197 3.383.6022 1.253.146 2.507.3833 3.76.7118 1.253.3285 2.38.803 3.383 1.4235 1.038.584 1.879 1.4052 2.524 2.4637.644 1.022.967 2.3725.967 4.0515 0 1.825-.538 3.4493-1.612 4.8728-1.074 1.387-2.631 2.482-4.672 3.285-2.005.803-4.457 1.2045-7.357 1.2045Zm25.737-6.4605.215-10.4025 13.479-13.0305h9.989l-12.943 13.4137-4.349 3.6135-6.391 6.4058Zm-6.928 6.0225V15.6464h8.378v40.6245h-8.378Zm21.535 0-9.774-12.3735 5.263-6.6248 14.661 18.9983h-10.15Z"/><path fill="#0369A1" d="M65.6364 0H5.96694C2.67149 0 0 2.7236 0 6.08333V66.9167C0 70.2764 2.67149 73 5.96694 73H65.6364c3.2954 0 5.9669-2.7236 5.9669-6.0833V6.08333C71.6033 2.7236 68.9318 0 65.6364 0Z"/><g fill="#fff" clip-path="url(#clip0_313_48)"><path d="M50.2258 48.1936h-4.0645v1.3548h4.0645v-1.3548ZM50.2258 42.7742h-4.0645v1.3548h4.0645v-1.3548ZM50.2258 37.3549h-4.0645v1.3548h4.0645v-1.3548ZM57 16.3548V15H15v1.3548h1.3548v8.8065H15v1.3548h42v-1.3548h-1.3548v-8.8065H57Zm-21.6774 8.8065h-8.1291v-1.3548h8.1291v1.3548Zm0-2.7097h-6.7742v-1.3548h6.7742v1.3548Zm0-2.7097h-8.1291v2.7097h-1.3548v2.7097h-8.129v-8.8065h17.6129v3.3871Zm2.7097 5.4194h-1.3549v-5.4194h1.3549v5.4194Zm2.7096 0h-1.3548v-5.4194h1.3548v5.4194Zm2.7097 0h-1.3548v-5.4194h1.3548v5.4194Zm2.7097 0h-1.3548v-5.4194h1.3548v5.4194Zm8.129 0h-6.7742v-6.7742H36.6774v-2.0323h17.6129v8.8065Z"/><path d="M35.706 31.5751c-.2635-2.1115-2.0675-3.7041-4.1959-3.7041h-4.5686c-2.1284 0-3.9324 1.5926-4.1959 3.7041-.0149.1192-.0196.2412-.0339.3604H15V36h1.3548v21h1.3549V36h4.7514c-.0014.0982-.0095.1965-.0095.2947 0 2.0153-.168 4.0449-.4992 6.0324l-.0908.5446c-.8319.2548-1.4422 1.0209-1.4422 1.9348 0 1.1204.9118 2.0322 2.0322 2.0322h6.0968v6.0968h-6.0968c-1.1204 0-2.0322.9118-2.0322 2.0322 0 1.1205.9118 2.0323 2.0322 2.0323 1.1205 0 2.0323-.9118 2.0323-2.0323 0-.2384-.0488-.4647-.1247-.6774h9.7339c-.0766.2127-.1254.439-.1254.6774C33.9677 56.0882 34.8795 57 36 57c1.1205 0 2.0323-.9118 2.0323-2.0323 0-1.1204-.9118-2.0322-2.0323-2.0322h-6.0968v-6.0968H36c1.1205 0 2.0323-.9118 2.0323-2.0322 0-.9139-.6104-1.68-1.4423-1.9348l-.0907-.5446C36.168 40.3389 36 38.3093 36 36.2947c0-.0976-.0081-.1965-.0095-.2947h4.7514v19.6452h1.3549V57h1.3548v-1.3548h9.4839V57h1.3548v-1.3548h1.3549V36H57v-4.0645H35.7399c-.0136-.1199-.019-.2412-.0339-.3604ZM22.4516 55.6452c-.3732 0-.6774-.3035-.6774-.6775 0-.3739.3042-.6774.6774-.6774.3733 0 .6774.3035.6774.6774 0 .374-.3041.6775-.6774.6775ZM36 54.2903c.3733 0 .6774.3035.6774.6774 0 .374-.3041.6775-.6774.6775s-.6774-.3035-.6774-.6775c0-.3739.3041-.6774.6774-.6774Zm-12.7118-11.741c.3442-2.0614.5183-4.1655.5183-6.2546 0-1.5168.0955-3.0477.2831-4.5516.1795-1.4348 1.4057-2.5173 2.8519-2.5173h4.5686c1.4463 0 2.6724 1.0825 2.8519 2.5173.1876 1.5039.2832 3.0348.2832 4.5516 0 2.0891.1741 4.1932.5175 6.2546l.0379.2249H23.251l.0372-.2249Zm-6.9334-7.9041v-1.3549h6.2303c-.0359.4519-.0624.9017-.082 1.3549h-6.1483ZM36 44.129c.3733 0 .6774.3035.6774.6775 0 .3739-.3041.6774-.6774.6774H22.4516c-.3732 0-.6774-.3035-.6774-.6774 0-.374.3042-.6775.6774-.6775H36Zm18.2903 10.1613H42.0968v-7.4516h12.1935v7.4516Zm0-8.8064H42.0968v-4.0645h12.1935v4.0645Zm0-5.4194H42.0968V36h12.1935v4.0645Zm1.3549-6.7742v1.3549H35.9485c-.0196-.4532-.046-.903-.082-1.3549h19.7787Z"/></g><defs><clipPath id="clip0_313_48"><path fill="#fff" d="M15 15h42v42H15z"/></clipPath></defs></svg>