<svg width="48" height="48" viewBox="0 0 48 48" fill="none" xmlns="http://www.w3.org/2000/svg">
<path d="M44 0H4C1.79086 0 0 1.79086 0 4V44C0 46.2091 1.79086 48 4 48H44C46.2091 48 48 46.2091 48 44V4C48 1.79086 46.2091 0 44 0Z" fill="#0369A1"/>
<g clip-path="url(#clip0_357_267)">
<path d="M33.6694 31.6889H30.9447V32.5798H33.6694V31.6889Z" fill="white"/>
<path d="M33.6694 28.1255H30.9447V29.0163H33.6694V28.1255Z" fill="white"/>
<path d="M33.6694 24.5621H30.9447V25.4529H33.6694V24.5621Z" fill="white"/>
<path d="M38.2105 10.7539V9.86301H10.0554V10.7539H10.9636V16.5444H10.0554V17.4353H38.2105V16.5444H37.3023V10.7539H38.2105ZM23.6789 16.5444H18.2295V15.6535H23.6789V16.5444ZM23.6789 14.7627H19.1377V13.8718H23.6789V14.7627ZM23.6789 12.981H18.2295V14.7627H17.3213V16.5444H11.8719V10.7539H23.6789V12.981ZM25.4953 16.5444H24.5871V12.981H25.4953V16.5444ZM27.3118 16.5444H26.4036V12.981H27.3118V16.5444ZM29.1282 16.5444H28.22V12.981H29.1282V16.5444ZM30.9447 16.5444H30.0365V12.981H30.9447V16.5444ZM36.3941 16.5444H31.8529V12.0901H24.5871V10.7539H36.3941V16.5444Z" fill="white"/>
<path d="M23.9359 20.7617C23.7592 19.3733 22.5499 18.3261 21.1231 18.3261H18.0606C16.6337 18.3261 15.4244 19.3733 15.2478 20.7617C15.2378 20.8401 15.2346 20.9203 15.2251 20.9987H10.0554V23.6712H10.9636V37.4794H11.8719V23.6712H15.057C15.0561 23.7358 15.0507 23.8004 15.0507 23.865C15.0507 25.1901 14.9381 26.5246 14.716 27.8315L14.6551 28.1896C14.0975 28.3571 13.6883 28.8609 13.6883 29.4618C13.6883 30.1985 14.2996 30.798 15.0507 30.798H19.1377V34.8069H15.0507C14.2996 34.8069 13.6883 35.4064 13.6883 36.1432C13.6883 36.8799 14.2996 37.4794 15.0507 37.4794C15.8018 37.4794 16.413 36.8799 16.413 36.1432C16.413 35.9864 16.3803 35.8376 16.3295 35.6977H22.8546C22.8033 35.8376 22.7706 35.9864 22.7706 36.1432C22.7706 36.8799 23.3819 37.4794 24.133 37.4794C24.8841 37.4794 25.4953 36.8799 25.4953 36.1432C25.4953 35.4064 24.8841 34.8069 24.133 34.8069H20.0459V30.798H24.133C24.8841 30.798 25.4953 30.1985 25.4953 29.4618C25.4953 28.8609 25.0862 28.3571 24.5285 28.1896L24.4677 27.8315C24.2456 26.5242 24.133 25.1897 24.133 23.865C24.133 23.8008 24.1275 23.7358 24.1266 23.6712H27.3118V36.5886H28.22V37.4794H29.1282V36.5886H35.4859V37.4794H36.3941V36.5886H37.3023V23.6712H38.2105V20.9987H23.9586C23.9495 20.9198 23.9459 20.8401 23.9359 20.7617ZM15.0507 36.5886C14.8005 36.5886 14.5966 36.389 14.5966 36.1432C14.5966 35.8973 14.8005 35.6977 15.0507 35.6977C15.3009 35.6977 15.5048 35.8973 15.5048 36.1432C15.5048 36.389 15.3009 36.5886 15.0507 36.5886ZM24.133 35.6977C24.3832 35.6977 24.5871 35.8973 24.5871 36.1432C24.5871 36.389 24.3832 36.5886 24.133 36.5886C23.8828 36.5886 23.6789 36.389 23.6789 36.1432C23.6789 35.8973 23.8828 35.6977 24.133 35.6977ZM15.6115 27.9776C15.8422 26.6222 15.9589 25.2387 15.9589 23.865C15.9589 22.8677 16.0229 21.861 16.1487 20.8722C16.2691 19.9288 17.091 19.217 18.0606 19.217H21.1231C22.0926 19.217 22.9146 19.9288 23.0349 20.8722C23.1607 21.861 23.2248 22.8677 23.2248 23.865C23.2248 25.2387 23.3415 26.6222 23.5717 27.9776L23.5971 28.1255H15.5865L15.6115 27.9776ZM10.9636 22.7804V21.8895H15.1401C15.1161 22.1866 15.0984 22.4824 15.0852 22.7804H10.9636ZM24.133 29.0163C24.3832 29.0163 24.5871 29.2159 24.5871 29.4618C24.5871 29.7076 24.3832 29.9072 24.133 29.9072H15.0507C14.8005 29.9072 14.5966 29.7076 14.5966 29.4618C14.5966 29.2159 14.8005 29.0163 15.0507 29.0163H24.133ZM36.3941 35.6977H28.22V30.798H36.3941V35.6977ZM36.3941 29.9072H28.22V27.2346H36.3941V29.9072ZM36.3941 26.3438H28.22V23.6712H36.3941V26.3438ZM37.3023 21.8895V22.7804H24.0985C24.0853 22.4824 24.0676 22.1866 24.0435 21.8895H37.3023Z" fill="white"/>
</g>
<defs>
<clipPath id="clip0_357_267">
<rect width="28.1551" height="27.6164" fill="white" transform="translate(10.0554 9.86301)"/>
</clipPath>
</defs>
</svg>
