<svg id="visual" viewBox="0 0 1920 1080" width="1920" height="1080" xmlns="http://www.w3.org/2000/svg" xmlns:xlink="http://www.w3.org/1999/xlink" version="1.1"><rect x="0" y="0" width="1920" height="1080" fill="#232323"></rect><defs><linearGradient id="grad1_0" x1="43.8%" y1="0%" x2="100%" y2="100%"><stop offset="14.444444444444446%" stop-color="#0369a1" stop-opacity="1"></stop><stop offset="85.55555555555554%" stop-color="#0369a1" stop-opacity="1"></stop></linearGradient></defs><defs><linearGradient id="grad1_1" x1="43.8%" y1="0%" x2="100%" y2="100%"><stop offset="14.444444444444446%" stop-color="#0369a1" stop-opacity="1"></stop><stop offset="85.55555555555554%" stop-color="#22567f" stop-opacity="1"></stop></linearGradient></defs><defs><linearGradient id="grad1_2" x1="43.8%" y1="0%" x2="100%" y2="100%"><stop offset="14.444444444444446%" stop-color="#29445e" stop-opacity="1"></stop><stop offset="85.55555555555554%" stop-color="#22567f" stop-opacity="1"></stop></linearGradient></defs><defs><linearGradient id="grad1_3" x1="43.8%" y1="0%" x2="100%" y2="100%"><stop offset="14.444444444444446%" stop-color="#29445e" stop-opacity="1"></stop><stop offset="85.55555555555554%" stop-color="#283340" stop-opacity="1"></stop></linearGradient></defs><defs><linearGradient id="grad1_4" x1="43.8%" y1="0%" x2="100%" y2="100%"><stop offset="14.444444444444446%" stop-color="#232323" stop-opacity="1"></stop><stop offset="85.55555555555554%" stop-color="#283340" stop-opacity="1"></stop></linearGradient></defs><defs><linearGradient id="grad2_0" x1="0%" y1="0%" x2="56.3%" y2="100%"><stop offset="14.444444444444446%" stop-color="#0369a1" stop-opacity="1"></stop><stop offset="85.55555555555554%" stop-color="#0369a1" stop-opacity="1"></stop></linearGradient></defs><defs><linearGradient id="grad2_1" x1="0%" y1="0%" x2="56.3%" y2="100%"><stop offset="14.444444444444446%" stop-color="#22567f" stop-opacity="1"></stop><stop offset="85.55555555555554%" stop-color="#0369a1" stop-opacity="1"></stop></linearGradient></defs><defs><linearGradient id="grad2_2" x1="0%" y1="0%" x2="56.3%" y2="100%"><stop offset="14.444444444444446%" stop-color="#22567f" stop-opacity="1"></stop><stop offset="85.55555555555554%" stop-color="#29445e" stop-opacity="1"></stop></linearGradient></defs><defs><linearGradient id="grad2_3" x1="0%" y1="0%" x2="56.3%" y2="100%"><stop offset="14.444444444444446%" stop-color="#283340" stop-opacity="1"></stop><stop offset="85.55555555555554%" stop-color="#29445e" stop-opacity="1"></stop></linearGradient></defs><defs><linearGradient id="grad2_4" x1="0%" y1="0%" x2="56.3%" y2="100%"><stop offset="14.444444444444446%" stop-color="#283340" stop-opacity="1"></stop><stop offset="85.55555555555554%" stop-color="#232323" stop-opacity="1"></stop></linearGradient></defs><g transform="translate(1920, 0)"><path d="M0 972C-67 889.2 -134.1 806.3 -209.1 780.5C-284.2 754.6 -367.2 785.7 -446.5 773.4C-525.8 761 -601.3 705.2 -631.4 631.4C-661.6 557.7 -646.4 465.9 -701.5 405C-756.6 344.1 -882.1 313.9 -938.9 251.6C-995.7 189.2 -983.8 94.6 -972 0L0 0Z" fill="#262b31"></path><path d="M0 777.6C-53.6 711.3 -107.3 645.1 -167.3 624.4C-227.3 603.7 -293.8 628.6 -357.2 618.7C-420.6 608.8 -481 564.2 -505.2 505.2C-529.3 446.1 -517.1 372.7 -561.2 324C-605.3 275.3 -705.7 251.2 -751.1 201.3C-796.6 151.4 -787.1 75.7 -777.6 0L0 0Z" fill="#293c4f"></path><path d="M0 583.2C-40.2 533.5 -80.4 483.8 -125.5 468.3C-170.5 452.8 -220.3 471.4 -267.9 464C-315.5 456.6 -360.8 423.1 -378.9 378.9C-397 334.6 -387.8 279.6 -420.9 243C-454 206.4 -529.2 188.4 -563.3 150.9C-597.4 113.5 -590.3 56.8 -583.2 0L0 0Z" fill="#274d6e"></path><path d="M0 388.8C-26.8 355.7 -53.6 322.5 -83.7 312.2C-113.7 301.8 -146.9 314.3 -178.6 309.3C-210.3 304.4 -240.5 282.1 -252.6 252.6C-264.6 223.1 -258.5 186.4 -280.6 162C-302.6 137.6 -352.8 125.6 -375.6 100.6C-398.3 75.7 -393.5 37.8 -388.8 0L0 0Z" fill="#196090"></path><path d="M0 194.4C-13.4 177.8 -26.8 161.3 -41.8 156.1C-56.8 150.9 -73.4 157.1 -89.3 154.7C-105.2 152.2 -120.3 141 -126.3 126.3C-132.3 111.5 -129.3 93.2 -140.3 81C-151.3 68.8 -176.4 62.8 -187.8 50.3C-199.1 37.8 -196.8 18.9 -194.4 0L0 0Z" fill="#0369a1"></path></g><g transform="translate(0, 1080)"><path d="M0 -972C90.4 -960.2 180.8 -948.3 237.3 -885.8C293.9 -823.2 316.6 -709.8 391 -677.2C465.4 -644.6 591.6 -692.7 669.6 -669.6C747.6 -646.5 777.4 -552.2 818.4 -472.5C859.3 -392.8 911.4 -327.9 938.9 -251.6C966.3 -175.3 969.2 -87.6 972 0L0 0Z" fill="#262b31"></path><path d="M0 -777.6C72.3 -768.1 144.6 -758.7 189.9 -708.6C235.1 -658.5 253.3 -567.9 312.8 -541.8C372.3 -515.7 473.3 -554.2 535.7 -535.7C598.1 -517.2 622 -441.7 654.7 -378C687.5 -314.3 729.1 -262.3 751.1 -201.3C773.1 -140.2 775.3 -70.1 777.6 0L0 0Z" fill="#293c4f"></path><path d="M0 -583.2C54.2 -576.1 108.5 -569 142.4 -531.5C176.3 -493.9 189.9 -425.9 234.6 -406.3C279.3 -386.8 355 -415.6 401.8 -401.8C448.6 -387.9 466.5 -331.3 491 -283.5C515.6 -235.7 546.9 -196.7 563.3 -150.9C579.8 -105.2 581.5 -52.6 583.2 0L0 0Z" fill="#274d6e"></path><path d="M0 -388.8C36.2 -384.1 72.3 -379.3 94.9 -354.3C117.6 -329.3 126.6 -283.9 156.4 -270.9C186.2 -257.9 236.7 -277.1 267.9 -267.9C299.1 -258.6 311 -220.9 327.4 -189C343.7 -157.1 364.6 -131.1 375.6 -100.6C386.5 -70.1 387.7 -35.1 388.8 0L0 0Z" fill="#196090"></path><path d="M0 -194.4C18.1 -192 36.2 -189.7 47.5 -177.2C58.8 -164.6 63.3 -142 78.2 -135.4C93.1 -128.9 118.3 -138.5 133.9 -133.9C149.5 -129.3 155.5 -110.4 163.7 -94.5C171.9 -78.6 182.3 -65.6 187.8 -50.3C193.3 -35.1 193.8 -17.5 194.4 0L0 0Z" fill="#0369a1"></path></g></svg>