<svg id="visual" viewBox="0 0 1920 1080" width="1920" height="1080" xmlns="http://www.w3.org/2000/svg" xmlns:xlink="http://www.w3.org/1999/xlink" version="1.1"><rect x="0" y="0" width="1920" height="1080" fill="#333"></rect><defs><linearGradient id="grad1_0" x1="43.8%" y1="0%" x2="100%" y2="100%"><stop offset="14.444444444444446%" stop-color="#454545" stop-opacity="1"></stop><stop offset="85.55555555555554%" stop-color="#454545" stop-opacity="1"></stop></linearGradient></defs><defs><linearGradient id="grad1_1" x1="43.8%" y1="0%" x2="100%" y2="100%"><stop offset="14.444444444444446%" stop-color="#454545" stop-opacity="1"></stop><stop offset="85.55555555555554%" stop-color="#3f3f3f" stop-opacity="1"></stop></linearGradient></defs><defs><linearGradient id="grad1_2" x1="43.8%" y1="0%" x2="100%" y2="100%"><stop offset="14.444444444444446%" stop-color="#393939" stop-opacity="1"></stop><stop offset="85.55555555555554%" stop-color="#3f3f3f" stop-opacity="1"></stop></linearGradient></defs><defs><linearGradient id="grad1_3" x1="43.8%" y1="0%" x2="100%" y2="100%"><stop offset="14.444444444444446%" stop-color="#393939" stop-opacity="1"></stop><stop offset="85.55555555555554%" stop-color="#333333" stop-opacity="1"></stop></linearGradient></defs><defs><linearGradient id="grad2_0" x1="0%" y1="0%" x2="56.3%" y2="100%"><stop offset="14.444444444444446%" stop-color="#454545" stop-opacity="1"></stop><stop offset="85.55555555555554%" stop-color="#454545" stop-opacity="1"></stop></linearGradient></defs><defs><linearGradient id="grad2_1" x1="0%" y1="0%" x2="56.3%" y2="100%"><stop offset="14.444444444444446%" stop-color="#3f3f3f" stop-opacity="1"></stop><stop offset="85.55555555555554%" stop-color="#454545" stop-opacity="1"></stop></linearGradient></defs><defs><linearGradient id="grad2_2" x1="0%" y1="0%" x2="56.3%" y2="100%"><stop offset="14.444444444444446%" stop-color="#3f3f3f" stop-opacity="1"></stop><stop offset="85.55555555555554%" stop-color="#393939" stop-opacity="1"></stop></linearGradient></defs><defs><linearGradient id="grad2_3" x1="0%" y1="0%" x2="56.3%" y2="100%"><stop offset="14.444444444444446%" stop-color="#333333" stop-opacity="1"></stop><stop offset="85.55555555555554%" stop-color="#393939" stop-opacity="1"></stop></linearGradient></defs><g transform="translate(1920, 0)"><path d="M0 972C-104.8 969.1 -209.5 966.2 -299.4 921.6C-389.4 877 -464.4 790.7 -513.7 707.1C-563 623.4 -586.5 542.4 -661.8 480.8C-737 419.3 -864.1 377.2 -924.4 300.4C-984.8 223.5 -978.4 111.7 -972 0L0 0Z" fill="#363636"></path><path d="M0 729C-78.6 726.8 -157.1 724.6 -224.6 691.2C-292 657.7 -348.3 593.1 -385.3 530.3C-422.3 467.6 -439.9 406.8 -496.3 360.6C-552.8 314.4 -648.1 282.9 -693.3 225.3C-738.6 167.6 -733.8 83.8 -729 0L0 0Z" fill="#3c3c3c"></path><path d="M0 486C-52.4 484.5 -104.8 483.1 -149.7 460.8C-194.7 438.5 -232.2 395.4 -256.9 353.5C-281.5 311.7 -293.3 271.2 -330.9 240.4C-368.5 209.6 -432 188.6 -462.2 150.2C-492.4 111.7 -489.2 55.9 -486 0L0 0Z" fill="#424242"></path><path d="M0 243C-26.2 242.3 -52.4 241.5 -74.9 230.4C-97.3 219.2 -116.1 197.7 -128.4 176.8C-140.8 155.9 -146.6 135.6 -165.4 120.2C-184.3 104.8 -216 94.3 -231.1 75.1C-246.2 55.9 -244.6 27.9 -243 0L0 0Z" fill="#454545"></path></g><g transform="translate(0, 1080)"><path d="M0 -972C105.7 -956 211.5 -940 282.8 -870.2C354 -800.4 390.8 -676.8 436.1 -600.3C481.5 -523.8 535.4 -494.4 630.2 -457.9C725 -421.4 860.7 -377.9 924.4 -300.4C988.2 -222.9 980.1 -111.4 972 0L0 0Z" fill="#363636"></path><path d="M0 -729C79.3 -717 158.6 -705 212.1 -652.7C265.5 -600.3 293.1 -507.6 327.1 -450.2C361.1 -392.8 401.6 -370.8 472.7 -343.4C543.8 -316.1 645.5 -283.4 693.3 -225.3C741.1 -167.2 735.1 -83.6 729 0L0 0Z" fill="#3c3c3c"></path><path d="M0 -486C52.9 -478 105.7 -470 141.4 -435.1C177 -400.2 195.4 -338.4 218.1 -300.1C240.7 -261.9 267.7 -247.2 315.1 -228.9C362.5 -210.7 430.3 -188.9 462.2 -150.2C494.1 -111.4 490 -55.7 486 0L0 0Z" fill="#424242"></path><path d="M0 -243C26.4 -239 52.9 -235 70.7 -217.6C88.5 -200.1 97.7 -169.2 109 -150.1C120.4 -130.9 133.9 -123.6 157.6 -114.5C181.3 -105.4 215.2 -94.5 231.1 -75.1C247 -55.7 245 -27.9 243 0L0 0Z" fill="#454545"></path></g></svg>